<mxfile host="app.diagrams.net" modified="2024-03-19T06:29:16.142Z" agent="Mozilla/5.0 (Windows NT 10.0; Win64; x64) AppleWebKit/537.36 (KHTML, like Gecko) Chrome/122.0.0.0 Safari/537.36" version="24.0.5" etag="nTug4onakotfiZax3ZzV" type="github">
  <diagram name="第 1 页" id="uCdVnU3-F7KiB4jbYnkl">
    <mxGraphModel>
      <root>
        <mxCell id="0" />
        <mxCell id="1" parent="0" />
      </root>
    </mxGraphModel>
  </diagram>
</mxfile>
